<svg width="200" height="200" viewBox="0 0 200 200" fill="none" xmlns="http://www.w3.org/2000/svg">
  <!-- Background Circle -->
  <circle cx="100" cy="100" r="95" fill="#264653" stroke="#2A9D8F" stroke-width="5"/>
  
  <!-- Foosball Table -->
  <rect x="50" y="60" width="100" height="80" rx="5" fill="#2A9D8F"/>
  <rect x="55" y="65" width="90" height="70" rx="3" fill="#E9C46A" opacity="0.9"/>
  
  <!-- Rods -->
  <rect x="40" y="75" width="120" height="5" rx="2.5" fill="#E76F51"/>
  <rect x="40" y="95" width="120" height="5" rx="2.5" fill="#E76F51"/>
  <rect x="40" y="115" width="120" height="5" rx="2.5" fill="#E76F51"/>
  
  <!-- Players -->
  <circle cx="60" y="77.5" r="7" fill="#264653"/>
  <circle cx="85" y="77.5" r="7" fill="#264653"/>
  <circle cx="115" y="77.5" r="7" fill="#264653"/>
  <circle cx="140" y="77.5" r="7" fill="#264653"/>
  
  <circle cx="70" y="97.5" r="7" fill="#E76F51"/>
  <circle cx="100" y="97.5" r="7" fill="#E76F51"/>
  <circle cx="130" y="97.5" r="7" fill="#E76F51"/>
  
  <circle cx="60" y="117.5" r="7" fill="#264653"/>
  <circle cx="85" y="117.5" r="7" fill="#264653"/>
  <circle cx="115" y="117.5" r="7" fill="#264653"/>
  <circle cx="140" y="117.5" r="7" fill="#264653"/>
  
  <!-- Text at bottom -->
  <text x="100" y="165" font-family="Arial, sans-serif" font-size="18" font-weight="bold" fill="#FAF3E1" text-anchor="middle">FOOSLADDER</text>
</svg>
